<svg viewBox="0 0 32 32" xmlns="http://www.w3.org/2000/svg"><path d="M14.93 12.39 13.5 4.13c-.07-.55-.14-1.03-.14-1.45C13.35 1.31 14.59 0 15.9 0c1.37 0 2.54 1.3 2.54 2.68 0 .28-.07.76-.14 1.45l-1.44 8.26c.41.07.69.13.9.27l4.88-6.88c1.03-1.44 1.79-1.86 2.82-1.86a2.42 2.42 0 0 1 2.48 2.48c0 1.1-.48 1.79-1.86 2.82l-6.88 4.82c.14.27.27.48.34.9l8.4-1.45c.55-.07 1.1-.14 1.38-.14 1.44 0 2.68 1.24 2.68 2.55 0 1.37-1.24 2.54-2.68 2.54-.28 0-.83 0-1.38-.13l-8.33-1.45c-.07.28-.14.62-.27.9l6.88 4.88c1.44 1.03 1.93 1.79 1.93 2.9 0 1.3-1.1 2.4-2.48 2.4-1.1 0-1.86-.48-2.82-1.86l-4.89-6.88c-.27.2-.55.34-.82.41l1.37 8.33c.14.55.14 1.03.14 1.38 0 1.44-1.17 2.68-2.55 2.68a2.7 2.7 0 0 1-2.54-2.62c0-.34.13-.82.2-1.44l1.38-8.26c-.34-.14-.62-.2-.9-.34l-4.88 6.88c-1.03 1.38-1.72 1.93-2.82 1.93-1.38 0-2.41-1.1-2.41-2.48 0-1.1.41-1.86 1.86-2.82l6.81-4.89c-.14-.2-.28-.55-.34-.82L4.13 18.5c-.62.14-1.03.14-1.45.14C1.31 18.65 0 17.48 0 16.1c0-1.3 1.3-2.54 2.68-2.54.28 0 .83.07 1.45.2l8.26 1.38c.07-.28.2-.62.34-.83L5.78 9.36C4.4 8.33 3.92 7.64 3.92 6.54c0-1.38 1.1-2.41 2.48-2.41 1.1 0 1.79.41 2.82 1.86l4.89 6.81c.2-.14.48-.28.82-.41z" fill="currentColor"/></svg>